<svg viewBox="0 0 230 270" xmlns="http://www.w3.org/2000/svg">
  <g>
    <ellipse ry="9.5" rx="9.5" id="svg_25" cy="20.9375" cx="22" fill-opacity="null" stroke-width="20" stroke="#5acdb3" fill="none" class=""/>
    <ellipse ry="9.5" rx="9.5" id="svg_28" cy="65.9375" cx="35" fill-opacity="null" stroke-width="20" stroke="#5acdb3" fill="none" class=""/>
    <ellipse ry="9.5" rx="9.5" id="svg_29" cy="100.9375" cx="64" fill-opacity="null" stroke-width="20" stroke="#5acdb3" fill="none" class=""/>
    <ellipse ry="9.5" rx="9.5" id="svg_30" cy="131.9375" cx="103" fill-opacity="null" stroke-width="20" stroke="#5acdb3" fill="none" class=""/>
    <ellipse ry="9.5" rx="9.5" id="svg_31" cy="162.28914827108383" cx="143.09890115261078" fill-opacity="null" stroke-width="20" stroke="#ff56ff" fill="none" class=""/>
    <ellipse ry="9.5" rx="9.5" id="svg_32" cy="200.9375" cx="176" fill-opacity="null" stroke-width="20" stroke="#5acdb3" fill="none" class=""/>
    <ellipse ry="9.5" rx="9.5" id="svg_33" cy="246.9375" cx="197" fill-opacity="null" stroke-width="20" stroke="#5acdb3" fill="none" class=""/>
    <ellipse ry="9.5" rx="9.5" id="svg_34" cy="22.703067779541016" cx="111.96336996555328" fill-opacity="null" stroke-width="20" stroke="#449cf1" fill="none" class=""/>
    <ellipse ry="9.5" rx="9.5" id="svg_35" cy="74.68475252389908" cx="111.63736325502396" fill-opacity="null" stroke-width="20" stroke="#449cf1" fill="none" class=""/>
    <ellipse ry="9.5" rx="9.5" id="svg_36" cy="158.62980806827545" cx="61.54945057630539" fill-opacity="null" stroke-width="20" stroke="#449cf1" fill="none" class=""/>
    <ellipse ry="9.5" rx="9.5" id="svg_37" cy="198.4869505763054" cx="29.505494236946106" fill-opacity="null" stroke-width="20" stroke="#449cf1" fill="none" class=""/>
    <ellipse ry="9.5" rx="9.5" id="svg_38" cy="246.9375" cx="22" fill-opacity="null" stroke-width="20" stroke="#449cf1" fill="none" class=""/>
    <ellipse ry="9.5" rx="9.5" id="svg_39" cy="20.9375" cx="199" fill-opacity="null" stroke-width="20" stroke="#ff56ff" fill="none" class=""/>
    <ellipse ry="9.5" rx="9.5" id="svg_40" cy="74.23420345783234" cx="193.79120922088623" fill-opacity="null" stroke-width="20" stroke="#ff56ff" fill="none" class=""/>
    <ellipse ry="9.5" rx="9.5" id="svg_41" cy="123.23420345783234" cx="176.890110373497" fill-opacity="null" stroke-width="20" stroke="#ff56ff" fill="none" class=""/>
    <ellipse ry="9.5" rx="9.5" id="svg_42" cy="200.83859884738922" cx="113.70329654216766" fill-opacity="null" stroke-width="20" stroke="#ff56ff" fill="none" class=""/>
    <ellipse ry="9.5" rx="9.5" id="svg_43" cy="247.9375" cx="107" fill-opacity="null" stroke-width="20" stroke="#ff56ff" fill="none" class=""/>
    <ellipse ry="9.5" rx="9.5" id="svg_48" cy="20.9375" cx="22" fill-opacity="null" stroke-width="20" stroke="#5acdb3" fill="none" class=""/>
  </g>
</svg>